<?xml version="1.0" standalone="no"?>
<!DOCTYPE svg PUBLIC "-//W3C//DTD SVG 20010904//EN"
 "http://www.w3.org/TR/2001/REC-SVG-20010904/DTD/svg10.dtd">
<svg version="1.0" xmlns="http://www.w3.org/2000/svg"
 width="640.000000pt" height="640.000000pt" viewBox="0 0 640.000000 640.000000"
 preserveAspectRatio="xMidYMid meet">
<metadata>
Created by potrace 1.14, written by Peter Selinger 2001-2017
</metadata>
<g transform="translate(0.000000,640.000000) scale(0.100000,-0.100000)"
fill="#000000" stroke="none">
<path d="M3340 6347 c0 -2 40 -30 89 -62 50 -31 95 -63 102 -71 13 -16 7 -16
-81 7 -19 5 -101 9 -182 9 -137 0 -158 -3 -281 -35 -135 -36 -290 -56 -426
-57 -69 0 -72 -1 -45 -13 16 -6 67 -18 114 -25 131 -20 133 -22 58 -57 -68
-32 -271 -161 -349 -223 -25 -20 -95 -61 -155 -90 -60 -30 -101 -56 -92 -58 9
-2 65 8 124 23 59 14 109 23 112 21 2 -3 -12 -25 -32 -49 -19 -24 -78 -116
-130 -204 -124 -211 -138 -233 -196 -305 -28 -34 -50 -66 -50 -70 0 -10 80 30
133 66 42 29 46 22 27 -44 -6 -19 -19 -93 -30 -165 -30 -196 -59 -335 -81
-384 -16 -37 -16 -41 -3 -30 20 16 144 264 144 287 0 8 3 12 7 8 4 -4 6 -42 4
-84 -1 -47 6 -130 20 -212 15 -89 22 -176 22 -255 l0 -120 18 54 c22 65 26 70
35 45 4 -10 27 -49 51 -86 49 -73 93 -215 93 -297 0 -58 18 -43 22 19 2 25 8
44 13 43 6 -1 24 -50 41 -110 31 -105 32 -107 35 -63 l4 45 19 -35 c11 -19 30
-64 43 -100 l23 -65 -3 97 c-1 53 1 94 5 92 4 -3 15 -32 24 -65 20 -72 35 -86
23 -22 -5 25 -7 48 -5 51 11 10 56 -101 71 -173 22 -110 18 -121 -49 -129 -72
-8 -215 -59 -296 -104 -93 -53 -115 -56 -173 -26 -41 21 -51 23 -64 12 -10 -8
-38 -12 -78 -10 -60 4 -64 2 -94 -30 -27 -29 -33 -31 -51 -20 -44 27 -108 4
-97 -37 4 -17 0 -24 -21 -33 -42 -16 -94 -29 -129 -32 -18 -1 -38 -7 -45 -14
-7 -7 -37 -12 -68 -12 -55 0 -57 -1 -73 -35 -9 -20 -17 -41 -17 -47 0 -13 80
-2 94 13 14 13 48 11 71 -5 11 -7 34 -16 50 -20 114 -26 170 -35 173 -27 11
33 27 40 72 30 25 -5 58 -19 73 -30 27 -19 31 -20 60 -6 23 11 35 13 44 5 15
-12 17 -44 3 -53 -19 -12 -10 -27 11 -22 26 7 94 -25 103 -48 3 -9 6 -35 6
-56 0 -35 3 -41 30 -50 17 -6 31 -15 31 -20 1 -5 2 -13 3 -19 0 -5 12 -17 26
-26 14 -10 37 -28 53 -42 22 -21 27 -23 27 -9 0 9 6 17 14 17 16 0 32 -37 42
-94 4 -22 16 -55 26 -73 11 -18 17 -37 13 -42 -3 -6 28 -44 69 -86 52 -53 82
-75 99 -75 30 0 45 -17 53 -61 8 -43 40 -79 70 -79 24 0 54 -24 54 -43 0 -7
14 -18 30 -25 17 -8 37 -27 46 -44 8 -16 31 -36 50 -44 32 -13 38 -23 35 -50
-2 -16 27 -81 39 -89 19 -11 10 -35 -15 -41 -31 -8 -33 -39 -6 -87 13 -23 16
-39 10 -48 -5 -8 -7 -36 -3 -64 4 -39 0 -68 -21 -130 -15 -44 -30 -84 -34 -88
-9 -9 -101 49 -101 64 0 5 -20 6 -44 3 -40 -6 -45 -4 -67 25 -12 17 -42 41
-66 52 -24 12 -68 43 -97 70 -33 30 -63 49 -77 49 -36 0 -89 36 -89 61 0 11
-15 36 -34 55 -26 26 -43 34 -69 34 -33 0 -64 20 -50 33 3 4 -21 33 -54 64
-33 32 -70 71 -82 88 -21 28 -24 29 -35 12 -19 -26 -36 -21 -42 13 -4 19 -23
43 -51 66 -38 31 -49 35 -78 30 -35 -7 -35 -6 -35 29 0 30 -3 35 -23 35 -14 0
-32 12 -45 30 -13 16 -40 39 -62 50 -22 11 -40 26 -41 33 0 6 -15 32 -33 57
-30 42 -36 45 -82 48 -27 2 -56 10 -64 17 -13 12 -28 12 -104 -4 l-88 -18 5
34 c4 24 2 33 -8 33 -8 0 -12 -6 -10 -12 3 -7 -11 -31 -31 -53 -178 -199 -207
-243 -207 -315 0 -25 3 -218 5 -430 l5 -385 -39 -124 c-70 -221 -148 -593
-187 -886 -15 -116 -24 -153 -54 -217 l-36 -78 380 0 380 0 41 87 c22 49 50
108 62 133 l21 45 3 -132 3 -133 1714 0 1715 0 0 52 c0 30 20 127 46 227 85
322 102 385 138 518 19 73 46 154 60 180 13 27 38 83 56 125 26 63 36 78 53
78 12 0 56 9 97 19 l75 20 56 -40 c67 -46 106 -62 124 -52 44 26 175 213 246
353 37 75 44 96 50 175 3 50 14 128 24 175 34 168 20 719 -21 818 -17 43 -56
58 -166 67 l-87 7 -43 47 c-24 26 -60 67 -80 91 -30 36 -37 41 -38 25 0 -12
-6 -27 -12 -34 -11 -10 -8 -17 15 -35 26 -21 38 -66 17 -66 -5 0 -13 -12 -16
-26 -5 -19 0 -32 19 -52 36 -37 57 -93 57 -148 0 -38 -5 -51 -29 -73 -28 -26
-29 -32 -25 -82 5 -53 5 -55 -28 -75 -31 -20 -33 -25 -30 -63 6 -56 -3 -85
-38 -125 -37 -42 -72 -52 -112 -31 -29 14 -32 14 -46 -6 -32 -46 -75 -89 -88
-89 -8 0 -24 6 -35 13 -18 10 -23 9 -37 -13 -30 -46 -80 -90 -101 -90 -12 0
-21 1 -21 3 0 2 13 61 30 133 35 151 38 185 12 135 -9 -19 -44 -56 -77 -81
-60 -46 -60 -47 -63 -104 -2 -44 1 -63 17 -85 20 -27 28 -61 16 -61 -11 0 -47
39 -61 65 -17 33 -17 35 -1 31 6 -1 9 -1 5 1 -4 3 -10 4 -13 4 -8 -1 -50 43
-68 71 -12 20 -28 28 -62 34 -25 3 -48 10 -51 15 -3 5 -26 9 -52 9 -41 0 -61
-4 -132 -21 -8 -2 -17 -7 -20 -11 -10 -13 -80 -38 -80 -29 0 17 145 80 200 87
30 4 66 12 80 20 14 7 67 17 118 23 51 5 96 12 101 15 9 6 34 96 29 102 -2 2
-51 -6 -108 -17 -58 -11 -114 -20 -125 -19 -18 0 -80 -19 -130 -40 -99 -42
-141 -65 -213 -120 -46 -34 -85 -60 -88 -58 -4 5 101 107 151 146 27 21 170
94 295 150 25 11 90 28 145 37 55 9 101 17 101 18 17 24 74 265 74 311 0 25
25 64 35 54 6 -5 -13 -119 -31 -193 -3 -11 17 15 45 58 28 42 55 77 61 77 30
0 -33 -175 -84 -235 l-25 -30 -1 40 c0 51 -16 34 -24 -27 l-7 -47 30 10 c17 6
34 15 37 20 11 18 36 10 29 -10 -10 -33 51 -15 114 33 76 59 171 147 171 159
0 6 -10 0 -22 -11 -34 -32 -108 -95 -150 -126 l-36 -27 -18 36 c-9 20 -19 34
-21 31 -3 -2 0 -13 6 -24 14 -27 14 -59 0 -68 -30 -18 -32 39 -7 143 l10 43
20 -26 c13 -16 28 -24 42 -22 25 4 78 81 106 157 12 29 29 61 39 70 21 19 55
122 48 148 -4 14 -5 13 -6 -4 -1 -21 -123 -268 -142 -288 -5 -5 -9 -1 -9 12 0
12 -4 25 -10 28 -11 7 -8 40 14 180 9 55 19 123 22 150 4 42 3 46 -7 25 -14
-33 -39 -163 -39 -206 0 -19 -2 -34 -5 -34 -3 0 -24 9 -46 21 -26 13 -40 16
-37 8 2 -7 19 -20 36 -28 36 -18 41 -36 13 -44 -25 -6 -59 12 -83 44 -28 37
-27 150 2 318 17 103 20 139 11 153 -18 29 -13 45 22 72 24 19 27 24 11 20
-12 -3 -39 3 -62 15 -38 19 -101 24 -112 9 -3 -4 -24 -10 -47 -14 -38 -6 -45
-3 -85 32 -78 70 -97 75 -166 44 -44 -20 -44 -20 -49 0 -8 30 -23 24 -23 -8 0
-20 -12 -41 -36 -66 l-35 -36 11 -77 c11 -81 6 -138 -15 -163 -7 -8 -22 -34
-34 -57 -28 -56 -65 -85 -95 -73 -21 8 -23 5 -36 -58 -7 -37 -15 -73 -18 -81
-12 -32 59 36 78 74 11 22 43 63 71 90 l51 50 -30 -60 c-17 -33 -38 -76 -47
-96 -9 -20 -35 -59 -58 -86 -23 -28 -47 -59 -54 -69 -10 -15 -14 -16 -21 -5
-7 9 -11 4 -15 -20 -2 -19 -3 -36 -2 -37 10 -11 117 73 153 121 24 31 47 57
51 59 4 2 29 37 56 78 28 41 84 108 125 149 61 60 94 82 177 122 56 27 113 49
127 49 37 0 76 -17 76 -34 0 -17 -43 -50 -80 -61 -14 -4 -43 -20 -64 -36 -22
-16 -46 -29 -54 -29 -24 0 -216 -165 -366 -316 -66 -66 -196 -168 -203 -160
-8 7 -39 -109 -58 -214 -26 -147 -55 -273 -66 -287 -6 -7 -18 -13 -26 -13 -38
0 -126 -128 -137 -199 -4 -24 -13 -56 -21 -72 -10 -18 -13 -39 -9 -56 7 -25 6
-27 -9 -15 -14 12 -21 11 -47 -8 -25 -17 -30 -28 -30 -60 0 -35 -5 -42 -45
-70 -54 -37 -75 -66 -75 -102 0 -15 -10 -36 -22 -47 -27 -25 -115 -52 -159
-48 -31 2 -34 5 -37 39 -2 20 -12 44 -23 53 -11 11 -19 31 -19 50 0 36 -15 55
-46 55 -53 0 -56 63 -4 102 28 21 30 25 24 71 -6 41 -3 53 16 80 26 34 29 93
8 127 -9 14 -9 24 0 42 6 13 16 35 22 51 5 15 21 31 34 37 31 11 35 23 29 95
-4 51 -2 64 17 88 27 34 53 34 78 2 l20 -25 12 65 c10 52 16 65 31 65 21 0 41
34 58 98 13 45 33 54 71 30 15 -10 22 -10 31 -1 10 10 7 28 -9 84 -23 75 -21
89 16 122 20 18 21 18 40 -1 28 -28 36 -15 13 17 -19 26 -19 28 -2 50 11 15
21 20 25 13 3 -6 2 -13 -4 -17 -5 -3 -10 -13 -10 -22 0 -14 2 -14 20 2 10 9
26 15 35 12 22 -9 19 1 -10 26 -22 20 -23 23 -8 37 15 13 16 12 10 -5 -7 -19
-6 -19 10 0 10 12 27 24 38 29 16 6 17 9 5 16 -12 8 -12 10 2 15 9 4 19 18 23
33 8 33 35 54 52 40 9 -7 13 -7 13 0 0 6 -4 14 -10 17 -15 9 -12 28 4 22 8 -3
13 1 12 10 0 9 5 18 12 20 7 3 12 -3 12 -14 0 -10 7 -27 15 -37 20 -27 19 -35
-5 -29 -27 7 -47 -11 -76 -69 -19 -37 -30 -48 -48 -48 -13 0 -27 -7 -30 -16
-8 -21 2 -33 13 -16 4 7 18 11 30 10 18 -3 26 6 44 47 30 69 35 75 60 75 39 0
48 12 32 44 -20 39 -19 63 5 83 17 15 19 25 14 65 -5 32 -2 53 6 63 7 9 10 19
6 23 -18 17 -37 -33 -32 -79 6 -41 4 -48 -16 -61 -13 -8 -27 -15 -32 -16 -5 0
-12 -6 -16 -12 -5 -8 -9 -5 -12 8 -4 15 -1 18 12 15 19 -5 35 22 20 32 -6 4
-10 11 -10 16 0 6 3 8 8 6 4 -3 6 21 6 54 -1 46 2 59 14 59 11 0 12 3 3 14 -7
8 -8 17 -3 20 5 3 10 17 10 31 0 20 -4 25 -17 20 -10 -4 -12 -3 -6 3 6 5 24
12 42 15 30 6 32 4 44 -31 12 -38 29 -65 29 -45 0 6 -7 30 -15 53 -18 52 -13
74 28 118 l31 32 -31 0 c-17 0 -42 -9 -56 -20 -14 -11 -32 -20 -41 -20 -8 0
-30 -15 -47 -34 -26 -29 -41 -36 -85 -42 -53 -6 -56 -5 -112 38 -31 24 -66 50
-78 58 -118 82 -174 126 -174 136 0 17 109 227 127 244 14 14 15 12 10 -15 -3
-16 -2 -48 2 -70 l6 -40 30 80 c36 100 92 222 105 230 6 4 10 -13 11 -42 0
-26 4 -66 8 -88 l8 -40 7 30 c29 121 63 231 92 296 19 42 37 91 40 108 4 17
11 31 17 31 10 0 5 -111 -8 -205 l-6 -40 25 50 c69 133 116 350 116 533 l0
126 56 -99 c31 -55 60 -104 64 -109 5 -4 -3 36 -16 90 -45 184 -53 229 -70
374 -16 150 -42 284 -68 357 -8 23 -12 45 -7 47 4 3 40 -34 81 -80 41 -47 78
-88 83 -91 9 -6 -50 86 -62 97 -3 3 -7 12 -9 20 -5 26 -46 100 -59 104 -6 3 2
-18 18 -46 37 -63 31 -74 -9 -16 -17 24 -37 50 -46 57 -9 8 -16 20 -16 29 0 8
-7 23 -16 33 -9 10 -17 39 -19 65 -3 64 -79 178 -204 307 -136 140 -197 180
-306 197 -63 10 -70 14 -117 65 -59 64 -139 106 -298 155 -58 18 -111 35 -117
37 -7 3 -13 3 -13 0z m920 -558 c0 -5 -4 -9 -10 -9 -5 0 -10 6 -10 13 0 8 -4
7 -10 -3 -5 -8 -10 -10 -10 -4 0 6 3 13 6 17 8 8 34 -3 34 -14z m120 -164 c0
-5 -5 -2 -11 7 -5 10 -23 32 -39 50 -17 18 -30 36 -30 41 0 4 -4 5 -10 2 -5
-3 -10 3 -10 14 0 15 -4 19 -17 14 -16 -6 -16 -5 -5 10 12 14 20 8 68 -56 30
-40 54 -76 54 -82z m-33 -70 c16 -22 31 -42 34 -45 37 -30 100 -262 113 -415
l5 -60 -19 75 c-11 41 -23 86 -26 99 -2 13 -11 30 -19 38 -8 8 -15 22 -15 31
0 9 -4 23 -9 30 -7 11 -9 10 -14 -3 -4 -9 -3 -14 1 -11 9 5 17 -112 16 -232 0
-45 -5 -67 -17 -79 -15 -16 -16 -14 -11 23 3 30 2 35 -6 19 -7 -15 -8 -11 -3
19 3 24 2 37 -4 33 -5 -3 -10 8 -10 26 0 18 -6 50 -12 72 -7 22 -18 67 -26
100 -7 33 -27 105 -44 160 -19 63 -26 104 -20 110 5 5 9 16 9 25 -1 12 -4 11
-15 -4 -13 -18 -15 -18 -15 -3 0 10 7 20 15 23 12 5 14 15 9 43 l-7 36 32 -35
c17 -19 43 -53 58 -75z m-719 -471 c5 -67 57 -266 86 -331 14 -32 27 -69 28
-82 3 -23 -1 -25 -72 -37 -81 -13 -185 -51 -225 -83 -46 -36 -9 -31 100 14 60
24 131 47 159 50 143 15 129 18 153 -33 l21 -47 2 60 2 60 11 -43 c7 -32 6
-67 -8 -150 -9 -59 -21 -114 -26 -124 -7 -14 -21 -15 -87 -11 -49 4 -93 1
-118 -7 -106 -33 -154 -54 -154 -67 0 -15 20 -12 118 19 52 17 84 20 175 17
82 -3 111 -1 114 9 3 6 -2 12 -11 12 -9 0 -16 4 -16 10 0 13 70 140 77 140 15
0 -8 -210 -31 -280 -40 -120 -17 -105 53 35 22 44 45 94 52 110 19 51 21 12 4
-112 -16 -119 -34 -193 -55 -233 -7 -12 -8 -21 -2 -19 19 8 112 123 132 164
11 23 29 50 40 60 11 10 20 28 20 39 0 12 9 39 20 61 11 22 20 32 20 23 0 -8
3 -30 6 -47 6 -27 4 -31 -15 -31 -11 0 -21 -4 -21 -9 0 -5 8 -7 19 -4 16 4 19
-4 25 -63 l7 -67 -55 -56 c-71 -72 -199 -123 -134 -54 12 12 19 26 15 29 -10
11 -26 -6 -60 -64 -197 -332 -295 -427 -652 -634 -27 -16 -40 -26 -27 -23 28
8 260 145 323 191 26 19 50 34 54 34 4 0 4 -26 1 -57 -4 -32 -8 -78 -10 -103
-2 -25 -6 -64 -10 -87 -8 -42 -7 -43 47 -95 61 -59 73 -92 84 -227 7 -88 -22
-316 -54 -425 -8 -29 -188 -210 -268 -271 -97 -73 -170 -116 -211 -125 -36 -8
-34 -10 -214 144 -14 11 -52 43 -85 70 -81 67 -181 169 -231 236 -49 64 -84
187 -84 293 0 64 0 64 58 129 31 36 75 91 96 122 39 56 39 57 32 129 -4 40 -9
90 -12 112 -5 38 -4 39 9 17 7 -13 36 -36 63 -52 28 -15 56 -35 63 -44 7 -9
17 -16 22 -16 5 0 33 -25 62 -56 28 -31 66 -71 82 -88 17 -18 35 -31 40 -30 6
2 24 -15 40 -36 17 -22 33 -39 37 -40 3 0 -5 39 -19 88 -13 48 -27 107 -30
130 -6 42 -5 43 15 31 17 -11 26 -10 49 1 l28 14 -41 6 c-22 3 -71 25 -110 49
-123 78 -327 237 -401 314 -66 67 -81 92 -168 267 l-95 194 0 80 c0 106 12
123 33 49 16 -59 60 -148 78 -159 20 -12 21 6 3 43 -16 31 -19 58 -17 153 1
63 6 126 12 140 8 22 10 19 10 -25 l1 -50 82 4 c88 4 166 -9 240 -41 77 -33
93 -17 20 20 -89 46 -173 66 -253 59 l-66 -6 51 135 c51 136 58 144 100 128
13 -5 16 -24 16 -100 0 -56 4 -94 10 -94 6 0 10 11 10 24 0 36 11 61 20 46 5
-8 14 6 25 34 10 25 21 46 26 46 5 0 45 -18 89 -41 59 -30 80 -46 80 -61 0
-36 19 -8 86 125 36 73 69 136 73 140 4 4 -1 -27 -11 -69 -10 -42 -17 -78 -15
-81 7 -6 166 203 244 320 46 69 64 81 45 30 -5 -15 -18 -64 -27 -108 -9 -44
-19 -86 -21 -93 -2 -8 1 -12 8 -10 17 6 111 198 150 305 18 50 35 90 37 87 3
-2 7 -25 9 -50z m891 -179 c7 -49 16 -106 21 -125 20 -74 38 -155 36 -157 -1
-1 -14 26 -28 60 -29 69 -50 174 -46 227 1 19 -1 53 -5 75 -5 25 -4 34 2 25 5
-8 14 -55 20 -105z m-1435 -13 c-25 -72 -50 -285 -40 -334 5 -25 -7 -40 -16
-20 -5 13 -104 82 -117 82 -6 0 -11 4 -11 9 0 21 42 106 68 136 15 18 50 69
77 114 28 44 53 81 56 81 3 0 -5 -31 -17 -68z m-281 -164 c-7 -62 -9 -67 -33
-61 -11 3 -19 8 -18 12 2 3 12 25 22 49 10 23 22 42 26 42 5 0 6 -19 3 -42z
m1017 -66 c0 -8 -9 -12 -22 -10 -20 3 -23 8 -20 38 1 19 5 46 8 60 5 22 8 18
20 -25 7 -27 13 -56 14 -63z m-1506 -337 c5 -22 19 -82 33 -134 13 -51 22 -96
19 -98 -9 -9 -37 18 -83 81 -48 65 -56 112 -27 167 21 42 47 35 58 -16z m1972
-130 c-4 -23 -14 -51 -22 -61 -14 -17 -15 -13 -9 50 3 38 9 74 12 79 12 20 25
-26 19 -68z m-1866 -126 c0 -16 -4 -29 -10 -29 -5 0 -10 16 -10 36 0 21 4 33
10 29 6 -3 10 -19 10 -36z m75 -50 c16 -29 15 -31 -2 -27 -11 2 -19 14 -21 31
-4 35 4 34 23 -4z m1385 -409 c0 -29 -4 -40 -15 -40 -18 0 -18 7 -4 49 15 41
19 39 19 -9z m-6 -129 c-4 -17 -9 -30 -11 -27 -3 2 -2 19 2 36 9 41 17 33 9
-9z m-974 -6 c11 -13 10 -14 -4 -9 -9 3 -16 10 -16 15 0 13 6 11 20 -6z m989
-120 l0 -20 -9 20 c-5 11 -9 29 -9 40 l0 20 9 -20 c5 -11 9 -29 9 -40z m-764
-44 c35 -35 43 -51 25 -51 -5 0 -10 7 -10 15 0 8 -7 15 -16 15 -9 0 -40 23
-68 52 l-51 52 43 -24 c23 -13 58 -40 77 -59z m775 -28 c0 -43 -5 -41 -13 5
-4 18 -2 32 3 32 6 0 10 -16 10 -37z m1111 20 c22 -12 19 -13 -26 -7 -74 10
-101 23 -44 22 26 -1 57 -7 70 -15z m238 -9 c2 -2 -12 -4 -33 -4 -31 0 -35 2
-24 14 12 13 36 8 57 -10z m-532 -41 c-3 -10 -5 -2 -5 17 0 19 2 27 5 18 2
-10 2 -26 0 -35z m378 27 c7 -12 -12 -12 -40 0 -18 8 -17 9 7 9 15 1 30 -3 33
-9z m-46 -31 c80 -17 67 -25 -33 -21 l-92 4 -65 -39 c-49 -30 -74 -53 -106
-102 l-41 -64 5 64 c3 35 11 73 18 85 17 27 68 51 147 68 80 18 105 19 167 5z
m-1142 -41 c-3 -7 -5 -2 -5 12 0 14 2 19 5 13 2 -7 2 -19 0 -25z m20 -50 c-3
-8 -6 -5 -6 6 -1 11 2 17 5 13 3 -3 4 -12 1 -19z m140 -80 c-3 -8 -6 -5 -6 6
-1 11 2 17 5 13 3 -3 4 -12 1 -19z m-2270 -20 c-3 -8 -6 -5 -6 6 -1 11 2 17 5
13 3 -3 4 -12 1 -19z m3418 -79 c8 -12 -13 -69 -26 -69 -5 0 -13 9 -19 21 -9
16 -8 25 6 40 19 22 30 24 39 8z m-1278 -51 c-3 -7 -5 -2 -5 12 0 14 2 19 5
13 2 -7 2 -19 0 -25z m1144 -29 c21 -21 19 -49 -4 -49 -7 0 -28 -11 -47 -25
-19 -14 -40 -23 -46 -21 -7 3 -32 -8 -56 -23 l-44 -28 4 29 c3 19 17 37 44 56
22 15 54 39 72 54 38 33 50 34 77 7z m-1155 -26 c-10 -10 -19 5 -10 18 6 11 8
11 12 0 2 -7 1 -15 -2 -18z m1284 -53 c0 -11 -4 -20 -10 -20 -5 0 -10 9 -10
20 0 11 5 20 10 20 6 0 10 -9 10 -20z m-85 -16 l27 -26 -12 -87 c-15 -113 -49
-173 -156 -275 -46 -44 -86 -77 -89 -75 -2 3 16 32 41 65 24 32 60 91 79 131
36 73 79 213 67 213 -4 0 -31 -16 -59 -35 -29 -19 -58 -35 -65 -35 -8 0 -24
-7 -36 -16 -37 -26 -25 0 27 56 39 42 85 76 148 109 1 1 14 -11 28 -25z
m-1240 -34 c-8 -23 -15 -53 -15 -66 0 -12 -4 -25 -9 -28 -4 -3 -7 -31 -6 -62
1 -39 -3 -58 -12 -61 -7 -3 -13 -17 -13 -32 0 -24 -39 -89 -40 -66 0 41 97
372 106 362 3 -2 -3 -23 -11 -47z m165 -72 l-22 -23 17 35 c10 19 20 30 22 23
3 -7 -5 -23 -17 -35z m1317 -40 c1 -18 4 -48 8 -66 7 -31 -6 -62 -26 -62 -22
0 -39 35 -39 78 0 50 6 66 30 75 25 9 26 8 27 -25z m-517 -50 c0 -7 -23 -29
-50 -48 -27 -19 -50 -39 -50 -44 0 -4 -7 -5 -16 -2 -8 3 -12 2 -9 -4 4 -6 -1
-17 -9 -26 -9 -8 -22 -25 -31 -36 -27 -39 -28 -10 -1 36 28 47 80 95 130 120
38 19 36 19 36 4z m-215 -77 c-8 -23 -17 -79 -20 -124 -11 -159 -13 -164 -47
-176 -49 -17 -114 -76 -137 -126 -25 -53 -46 -61 -36 -12 13 58 38 101 97 162
55 57 58 61 58 111 0 28 7 71 15 94 8 23 15 47 15 52 0 20 -34 -18 -82 -91
-30 -46 -48 -66 -48 -54 0 48 86 158 160 205 35 22 43 9 25 -41z m-788 -13
c-3 -8 -6 -5 -6 6 -1 11 2 17 5 13 3 -3 4 -12 1 -19z m623 -558 c0 -5 -11 -10
-24 -10 -13 0 -26 -5 -28 -12 -3 -7 -9 -8 -18 -3 -10 6 -9 11 5 22 22 15 65
18 65 3z m487 -78 c89 -36 110 -52 97 -74 -5 -7 -11 -6 -18 4 -16 22 -102 63
-171 83 -73 21 -99 41 -40 30 22 -4 82 -23 132 -43z"/>
<path d="M2905 4415 c17 -13 37 -24 45 -24 9 0 4 9 -15 24 -16 14 -37 25 -45
25 -9 0 -4 -9 15 -25z"/>
<path d="M3587 4380 c-21 -4 -43 -13 -50 -20 -10 -10 -6 -11 18 -5 17 4 55 13
85 20 46 11 49 13 20 13 -19 0 -52 -4 -73 -8z"/>
<path d="M3160 4257 c0 -95 37 -247 60 -247 4 0 11 -10 15 -22 12 -36 25 55
18 127 -5 61 -64 205 -83 205 -6 0 -10 -28 -10 -63z"/>
<path d="M2950 4250 c0 -5 7 -10 15 -10 8 0 15 5 15 10 0 6 -7 10 -15 10 -8 0
-15 -4 -15 -10z"/>
<path d="M4160 4178 c0 -9 -7 -24 -16 -33 -9 -9 -14 -18 -12 -20 3 -3 15 6 28
20 18 20 21 28 12 37 -9 9 -12 8 -12 -4z"/>
<path d="M3523 3629 c-54 -27 -75 -31 -175 -36 -135 -7 -264 8 -310 37 -18 11
-44 20 -58 19 -70 -2 211 -89 289 -89 65 0 232 40 279 67 23 14 42 27 42 29 0
6 1 6 -67 -27z"/>
<path d="M3660 3170 c0 -11 5 -20 10 -20 6 0 10 9 10 20 0 11 -4 20 -10 20 -5
0 -10 -9 -10 -20z"/>
<path d="M2977 3063 c-14 -4 -17 -11 -13 -26 15 -54 27 -147 24 -178 l-3 -34
-110 1 c-93 1 -117 4 -153 23 -24 12 -46 20 -49 17 -14 -13 10 -35 54 -51 26
-9 84 -34 128 -55 57 -28 99 -41 145 -45 96 -10 159 -33 207 -79 49 -46 68
-44 24 3 -16 17 -33 45 -36 62 -13 57 -184 376 -198 368 -1 -1 -10 -3 -20 -6z"/>
<path d="M3470 2707 c-55 -27 -54 -26 -48 -32 8 -8 128 36 122 46 -8 13 -24
10 -74 -14z"/>
<path d="M2990 2645 c0 -3 28 -36 63 -74 34 -37 77 -85 95 -107 l33 -39 -21
40 c-11 22 -20 48 -20 58 0 10 -16 33 -35 53 -19 19 -35 32 -35 28 0 -4 -11 5
-25 20 -21 23 -55 36 -55 21z"/>
<path d="M2287 4287 c-3 -8 4 -31 14 -53 17 -34 18 -35 12 -9 -3 17 -7 40 -7
53 -1 24 -11 29 -19 9z"/>
<path d="M3831 2574 c0 -11 3 -14 6 -6 3 7 2 16 -1 19 -3 4 -6 -2 -5 -13z"/>
<path d="M4400 5603 c0 -6 5 -15 10 -18 6 -3 10 -11 10 -16 0 -6 -4 -8 -9 -5
-5 4 -7 -3 -4 -15 4 -16 8 -17 14 -7 12 19 11 32 -6 54 -8 10 -15 14 -15 7z"/>
<path d="M4440 5531 c0 -5 5 -13 10 -16 6 -3 10 -2 10 4 0 5 -4 13 -10 16 -5
3 -10 2 -10 -4z"/>
<path d="M4440 5485 c0 -8 4 -15 10 -15 5 0 7 7 4 15 -4 8 -8 15 -10 15 -2 0
-4 -7 -4 -15z"/>
<path d="M5364 3349 c-5 -9 61 -119 73 -119 5 0 -4 15 -39 64 -16 22 -26 46
-24 53 6 16 0 17 -10 2z"/>
<path d="M5453 3165 c0 -22 2 -30 4 -17 2 12 2 30 0 40 -3 9 -5 -1 -4 -23z"/>
<path d="M5441 3108 c0 -9 -4 -25 -7 -35 -5 -17 -5 -17 6 0 6 10 9 25 7 35 -4
15 -5 15 -6 0z"/>
<path d="M5466 3057 c3 -10 9 -15 12 -12 3 3 0 11 -7 18 -10 9 -11 8 -5 -6z"/>
<path d="M1282 3030 c0 -14 2 -19 5 -12 2 6 2 18 0 25 -3 6 -5 1 -5 -13z"/>
<path d="M5491 3005 c0 -5 11 -30 24 -55 13 -25 24 -40 24 -35 0 6 -11 30 -24
55 -13 25 -24 41 -24 35z"/>
<path d="M1960 2911 c0 -6 4 -13 10 -16 6 -3 7 1 4 9 -7 18 -14 21 -14 7z"/>
<path d="M4482 2720 c0 -14 2 -19 5 -12 2 6 2 18 0 25 -3 6 -5 1 -5 -13z"/>
<path d="M1220 2656 c0 -9 5 -16 10 -16 6 0 10 4 10 9 0 6 -4 13 -10 16 -5 3
-10 -1 -10 -9z"/>
<path d="M5218 2315 c-10 -13 -35 -31 -57 -41 -30 -13 -41 -25 -50 -54 -6 -21
-11 -42 -11 -49 0 -21 36 -11 66 17 16 16 37 31 47 35 10 4 17 17 17 31 0 14
4 36 10 50 12 34 -1 40 -22 11z"/>
</g>
</svg>
